<?xml version="1.0" encoding="iso-8859-1"?>
<!-- Generator: Adobe Illustrator 16.0.0, SVG Export Plug-In . SVG Version: 6.00 Build 0)  -->
<!DOCTYPE svg PUBLIC "-//W3C//DTD SVG 1.1//EN" "http://www.w3.org/Graphics/SVG/1.1/DTD/svg11.dtd">
<svg version="1.1" id="Capa_1" xmlns="http://www.w3.org/2000/svg" xmlns:xlink="http://www.w3.org/1999/xlink" x="0px" y="0px"
	 width="324.407px" height="324.407px" viewBox="0 0 324.407 324.407" style="enable-background:new 0 0 324.407 324.407;"
	 xml:space="preserve">
<g>
	<g>
		<path d="M174.305,287.092c-6.681,1.15-27.338,14.764-43.934,25.707c-3.273,2.156-6.509,4.285-9.693,6.365
			c10.32,2.731,21.033,4.456,32.05,5.093c6.29-3.703,11.031-5.88,14.384-6.461c4.917-0.849,10.95,1.067,18.698,5.023
			c11.807-1.718,23.195-4.723,34.037-8.843c-4.25-2.851-8.508-5.872-12.717-8.87C195.2,296.612,180.368,286.052,174.305,287.092z"/>
		<path d="M324.407,162.354c0-89.584-72.618-162.204-162.203-162.204C72.624,0.151,0,72.771,0,162.354
			c0,52.988,25.42,100.036,64.727,129.632c29.571-13.648,67.795-37.528,83.624-47.671c33.859-21.683,56.514-43.64,63.789-61.818
			c3.908-9.767,4.175-19.494,0.739-26.686c-2.882-6.009-8.309-10.273-16.125-12.667c-13.292-4.065-30.327,8.574-41.846,21.77
			c-0.231,0.273-28.13,29.951-58.876,48.779c-0.95,0.575-22.729,13.645-46.302,20.058c-3.805,1.04-7.734-1.215-8.768-5.021
			c-1.033-3.799,1.205-7.728,5.012-8.761c21.676-5.906,42.426-18.346,42.633-18.476c28.356-17.357,55.343-45.748,55.588-46.015
			c18.959-21.731,39.661-31.21,56.738-25.988c11.625,3.568,20.221,10.534,24.817,20.157c5.164,10.787,5.04,24.694-0.359,38.167
			c-10.732,26.806-43.63,52.068-69.345,68.539c-14.75,9.445-48.629,30.621-77.62,44.912c7.844,4.743,16.137,8.802,24.774,12.176
			c6.326-4.014,12.963-8.377,19.31-12.559c24.73-16.304,40.387-26.316,49.361-27.863c11.937-2.061,26.577,8.377,43.537,20.464
			c6.721,4.784,13.579,9.658,20.07,13.565C288.229,280.282,324.407,225.555,324.407,162.354z M49.599,257.929
			c0.074-0.027,0.26-0.096,0.582-0.209c14.792-5.075,90.71-33.403,132.782-92.374c2.292-3.212,6.755-3.958,9.958-1.667
			c3.21,2.282,3.956,6.752,1.663,9.958c-44.598,62.52-124.253,92.266-139.766,97.59l-0.246,0.086
			c-0.806,0.294-1.629,0.432-2.435,0.432c-2.888,0-5.601-1.76-6.678-4.61C44.055,263.445,45.914,259.324,49.599,257.929z
			 M175.297,111.221c-1.595,0.164-2.054,0.212-4.172,0.658c-6.413,1.328-11.697,3.231-16.96,5.933
			c-5.566,2.853-10.85,6.227-15.812,10.025c-0.193,0.157-1.415,1.121-1.574,1.25c-0.566,0.467-1.127,0.926-1.689,1.395
			c-1.1,0.926-2.19,1.862-3.258,2.822c-2.062,1.846-4.079,3.735-6.025,5.694c-3.574,3.592-6.988,7.33-10.189,11.252
			c-7.893,9.693-16.474,18.549-26.448,26.132c-5.113,3.895-10.649,6.741-16.214,9.903c-6.591,3.748-13.211,7.512-20.514,9.709
			c-3.725,1.112-7.769-1.308-8.781-4.993c-1.047-3.819,1.264-7.669,4.989-8.788c2.415-0.726,4.259-1.399,6.399-2.45
			c6.247-3.035,12.38-6.526,18.404-9.992c5.681-3.262,9.574-6.366,14.385-10.713c4.688-4.23,9.171-8.705,13.271-13.509
			c3.137-3.654,6.045-7.489,9.279-11.06c17.013-18.74,39.093-34.879,64.901-37.555c3.881-0.396,7.146,3.553,7.146,7.146
			C182.442,108.275,179.171,110.816,175.297,111.221z M167.364,80.743c-49.045-2.45-83.003,42.71-97.509,62.001l-1.689,2.253
			c-3.872,5.12-8.064,8.79-10.903,10.972c-6.391,4.907-8.466,4.941-10.711,4.452c-2.717-0.597-4.854-2.717-5.45-5.443
			c-0.603-2.715,0.488-5.594,2.702-7.276c0.539-0.409,1.121-0.725,1.716-0.963c1.774-1.034,6.908-4.611,11.254-10.355l1.67-2.218
			c15.872-21.113,53.065-70.573,109.714-67.682c0.059,0.007,0.103,0.007,0.157,0.014c30.734,2.217,55.538,17.564,73.728,45.605
			c14.089,21.708,19.893,44.801,22.083,53.495c0.223,0.91,0.486,1.93,0.616,2.396c0.164,0.383,0.294,0.776,0.38,1.177
			c1.574,6.824,4.223,14.466,5.64,16.283c2.915,2.368,3.518,6.632,1.286,9.719c-1.396,1.937-3.579,2.964-5.797,2.964
			c-1.444,0-2.909-0.438-4.165-1.349c-5.099-3.676-8.63-14.853-10.735-23.818c-0.318-0.876-0.605-2.025-1.078-3.888
			C236.479,114.24,207.808,83.692,167.364,80.743z M252.315,287.852c-21.518-6.632-41.052-22.497-49.56-43.472
			c-1.464-3.62,1.567-7.844,4.99-8.791c4.079-1.126,7.316,1.386,8.781,4.993c4.606,11.357,14.092,20.255,24.481,26.395
			c5.674,3.36,9.747,5.458,15.105,7.098C264.889,276.777,261.146,290.569,252.315,287.852z M272.534,246.588
			c-2.149,3.675-6.188,4.072-9.767,2.56c-16.286-6.879-29.924-16.905-32.983-35.434c-1.479-9,12.282-12.86,13.781-3.792
			c1.143,6.954,3.713,12.984,9.227,17.57c5.02,4.168,11.238,6.81,17.186,9.328C273.561,238.333,274.313,243.562,272.534,246.588z"/>
	</g>
</g>
<g>
</g>
<g>
</g>
<g>
</g>
<g>
</g>
<g>
</g>
<g>
</g>
<g>
</g>
<g>
</g>
<g>
</g>
<g>
</g>
<g>
</g>
<g>
</g>
<g>
</g>
<g>
</g>
<g>
</g>
</svg>
