<?xml version="1.0" encoding="iso-8859-1"?>
<!-- Generator: Adobe Illustrator 19.0.0, SVG Export Plug-In . SVG Version: 6.00 Build 0)  -->
<svg version="1.1" id="Layer_1" xmlns="http://www.w3.org/2000/svg" xmlns:xlink="http://www.w3.org/1999/xlink" x="0px" y="0px"
	 viewBox="0 0 512 512" style="enable-background:new 0 0 512 512;" xml:space="preserve">
<g>
	<g>
		<path d="M469.779,68.409H42.221C18.941,68.409,0,87.35,0,110.63v256.534c0,23.281,18.941,42.221,42.221,42.221h52.268
			c11.716,20.414,33.719,34.205,58.897,34.205s47.181-13.791,58.897-34.205h257.495c23.281,0,42.221-18.941,42.221-42.221V110.63
			C512,87.35,493.059,68.409,469.779,68.409z M153.386,427.557c-28.585,0-51.841-23.256-51.841-51.841
			c0-28.585,23.256-51.841,51.841-51.841c28.585,0,51.841,23.256,51.841,51.841C205.228,404.302,181.972,427.557,153.386,427.557z
			 M131.364,244.576c-2.817-1.408-4.729-4.233-4.996-7.438l-1.868-20.362c-0.188-2.047-1.154-3.943-2.701-5.297
			c-2.031-1.78-3.15-4.189-3.15-6.785v-25.653c0-9.725,7.912-17.637,17.637-17.637h51.84v43.29c0,2.596-1.119,5.006-3.15,6.785
			c-1.547,1.354-2.513,3.252-2.701,5.297l-1.874,20.43c-0.262,3.138-2.174,5.962-4.991,7.371c-2.721,1.361-4.438,4.145-4.432,7.188
			l0.032,15.206c0.015,7.126,4.567,13.429,11.329,15.683l33.779,11.259c3.715,1.239,6.212,4.702,6.212,8.62v21.878
			c0,0.294-0.239,0.534-0.534,0.534h-23.431c-11.985-10.629-27.736-17.102-44.978-17.102s-32.994,6.473-44.979,17.102H84.977
			c-0.295,0-0.534-0.241-0.534-0.534v-21.878c0-3.917,2.497-7.381,6.212-8.62l33.779-11.259c6.761-2.253,11.313-8.557,11.329-15.683
			l0.032-15.206C135.802,248.721,134.085,245.938,131.364,244.576z M211.668,340.977h10.128c9.136,0,16.568-7.432,16.568-16.568
			v-21.878c0-10.829-6.903-20.405-17.176-23.83l-33.779-11.259c-0.218-0.073-0.365-0.276-0.366-0.506l-0.022-10.867
			c5.317-4.268,8.781-10.613,9.352-17.465l1.607-17.512c3.96-4.55,6.18-10.365,6.18-16.399v-51.307c0-4.427-3.589-8.017-8.017-8.017
			h-59.858c-18.566,0-33.67,15.105-33.67,33.67v25.653c0,6.034,2.22,11.849,6.18,16.399l1.601,17.443
			c0.575,6.905,4.042,13.262,9.357,17.532l-0.022,10.867c0,0.23-0.148,0.433-0.366,0.506l-33.779,11.26
			c-10.273,3.424-17.176,13.001-17.176,23.83v21.878c0,9.136,7.432,16.568,16.568,16.568h10.128
			c-3.345,5.589-5.909,11.696-7.539,18.171H50.772c-0.295,0-0.534-0.241-0.534-0.534V119.182c0-0.294,0.239-0.534,0.534-0.534H256
			c0.295,0,0.534,0.241,0.534,0.534v239.432c0,0.294-0.239,0.534-0.534,0.534h-36.792
			C217.576,352.673,215.012,346.566,211.668,340.977z M495.967,367.165c0,14.44-11.748,26.188-26.188,26.188H218.922
			c1.516-5.628,2.339-11.537,2.339-17.637c0-0.178-0.012-0.356-0.014-0.534H256c9.136,0,16.568-7.432,16.568-16.568V119.182
			c0-9.136-7.432-16.568-16.568-16.568H50.772c-9.136,0-16.568,7.432-16.568,16.568v239.432c0,9.136,7.432,16.568,16.568,16.568
			h34.753c-0.001,0.178-0.014,0.356-0.014,0.534c0,6.1,0.822,12.009,2.338,17.637H42.221c-14.44,0-26.188-11.748-26.188-26.188
			V110.63c0-14.44,11.748-26.188,26.188-26.188h427.557c14.44,0,26.188,11.748,26.188,26.188V367.165z"/>
	</g>
</g>
<g>
	<g>
		<path d="M184.455,352.705c-3.262-2.993-8.333-2.772-11.325,0.492l-26.115,28.489l-14.066-12.056
			c-3.363-2.882-8.422-2.493-11.304,0.869c-2.882,3.362-2.493,8.423,0.869,11.304l19.953,17.102c1.509,1.293,3.365,1.93,5.214,1.93
			c2.172,0,4.334-0.878,5.912-2.6l31.354-34.205C187.939,360.768,187.718,355.697,184.455,352.705z"/>
	</g>
</g>
<g>
	<g>
		<path d="M418.472,119.716H298.756c-4.427,0-8.017,3.589-8.017,8.017c0,4.427,3.589,8.017,8.017,8.017h119.716
			c4.427,0,8.017-3.589,8.017-8.017C426.489,123.305,422.899,119.716,418.472,119.716z"/>
	</g>
</g>
<g>
	<g>
		<path d="M461.228,153.921H298.756c-4.427,0-8.017,3.589-8.017,8.017s3.589,8.017,8.017,8.017h162.472
			c4.427,0,8.017-3.589,8.017-8.017S465.655,153.921,461.228,153.921z"/>
	</g>
</g>
<g>
	<g>
		<path d="M461.228,273.637H350.063c-4.427,0-8.017,3.589-8.017,8.017s3.589,8.017,8.017,8.017h111.165
			c4.427,0,8.017-3.589,8.017-8.017S465.655,273.637,461.228,273.637z"/>
	</g>
</g>
<g>
	<g>
		<path d="M315.858,273.637h-17.102c-4.427,0-8.017,3.589-8.017,8.017s3.589,8.017,8.017,8.017h17.102
			c4.427,0,8.017-3.589,8.017-8.017S320.285,273.637,315.858,273.637z"/>
	</g>
</g>
<g>
	<g>
		<path d="M435.574,307.841h-85.511c-4.427,0-8.017,3.589-8.017,8.017s3.589,8.017,8.017,8.017h85.511
			c4.427,0,8.017-3.589,8.017-8.017S440.001,307.841,435.574,307.841z"/>
	</g>
</g>
<g>
	<g>
		<path d="M315.858,307.841h-17.102c-4.427,0-8.017,3.589-8.017,8.017s3.589,8.017,8.017,8.017h17.102
			c4.427,0,8.017-3.589,8.017-8.017S320.285,307.841,315.858,307.841z"/>
	</g>
</g>
<g>
	<g>
		<path d="M435.574,342.046h-85.511c-4.427,0-8.017,3.589-8.017,8.017s3.589,8.017,8.017,8.017h85.511
			c4.427,0,8.017-3.589,8.017-8.017S440.001,342.046,435.574,342.046z"/>
	</g>
</g>
<g>
	<g>
		<path d="M315.858,342.046h-17.102c-4.427,0-8.017,3.589-8.017,8.017s3.589,8.017,8.017,8.017h17.102
			c4.427,0,8.017-3.589,8.017-8.017S320.285,342.046,315.858,342.046z"/>
	</g>
</g>
<g>
	<g>
		<path d="M315.858,196.676c-13.851,0-25.119,11.268-25.119,25.119s11.268,25.119,25.119,25.119
			c13.851,0,25.119-11.268,25.119-25.119S329.709,196.676,315.858,196.676z M315.858,230.881c-5.01,0-9.086-4.076-9.086-9.086
			s4.076-9.086,9.086-9.086c5.01,0,9.086,4.076,9.086,9.086S320.868,230.881,315.858,230.881z"/>
	</g>
</g>
<g>
	<g>
		<path d="M384.267,196.676c-13.851,0-25.119,11.268-25.119,25.119s11.268,25.119,25.119,25.119
			c13.851,0,25.119-11.268,25.119-25.119S398.118,196.676,384.267,196.676z M384.267,230.881c-5.01,0-9.086-4.076-9.086-9.086
			s4.076-9.086,9.086-9.086c5.01,0,9.086,4.076,9.086,9.086S389.277,230.881,384.267,230.881z"/>
	</g>
</g>
<g>
	<g>
		<path d="M452.676,196.676c-13.851,0-25.119,11.268-25.119,25.119s11.268,25.119,25.119,25.119
			c13.851,0,25.119-11.268,25.119-25.119S466.527,196.676,452.676,196.676z M452.676,230.881c-5.01,0-9.086-4.076-9.086-9.086
			s4.076-9.086,9.086-9.086c5.01,0,9.086,4.076,9.086,9.086S457.686,230.881,452.676,230.881z"/>
	</g>
</g>
<g>
</g>
<g>
</g>
<g>
</g>
<g>
</g>
<g>
</g>
<g>
</g>
<g>
</g>
<g>
</g>
<g>
</g>
<g>
</g>
<g>
</g>
<g>
</g>
<g>
</g>
<g>
</g>
<g>
</g>
</svg>
